# xmcd CD database file
#
# Track frame offsets:
#       150
#       16097
#       36459
#       55829
#       68881
#       82336
#       104098
#       114754
#       133441
#       160407
#       169901
#       187749
#       219101
#
# Disc length: 3258 seconds
#
# Revision: 0
# Processed by: cddbd v1.5.2PL0 Copyright (c) Steve Scherf et al.
# Submitted via: jack 3.1.1
#
DISCID=b60cb80d
DTITLE=The Jimmyriggers - I Stand in the Weeds
DYEAR=2011
DGENRE=
TTITLE0=Sleepwalking
TTITLE1=Half in Shadow
TTITLE2=Lay Me Over the Water
TTITLE3=I'm Gonna Make Her Mine
TTITLE4=Jack the Fatalist
TTITLE5=One Man Divided
TTITLE6=Count your Blessings Before the Hangman Cometh
TTITLE7=Modern Warfare
TTITLE8=Rattle my Cage
TTITLE9=Connection
TTITLE10=Thieves and Beggars
TTITLE11=The Twenty-Seventh of December
TTITLE12=I Stand in the Weeds
EXTD=
EXTT0=
EXTT1=
EXTT2=
EXTT3=
EXTT4=
EXTT5=
EXTT6=
EXTT7=
EXTT8=
EXTT9=
EXTT10=
EXTT11=
EXTT12=
PLAYORDER=
